# xmcd
#
# Track frame offsets:
#	150
#	19962
#	39180
#	53790
#	71970
#	91795
#	106432
#	123837
#	139270
#	158100
#	172542
#	190337
#	205577
#	222730
#	238952
#	254872
#
# Disc length: 3625 seconds
#
# Revision: 0
# Processed by: cddbd v1.5.1PL2 Copyright (c) Steve Scherf et al.
# Submitted via: dBpowerAMP V4.0
#
DISCID=e90e2710
DTITLE=LEONARDO - MAXXIMUM
DYEAR=2005
DGENRE=SERTANEJO
TTITLE0=MENTIRA QUE VIROU PAIXÃO
TTITLE1=MANO
TTITLE2=BOTO PRA REMEXER
TTITLE3=QUERO COLO
TTITLE4=DEIXARIA TUDO
TTITLE5=TODAS AS COISAS DO MUNDO
TTITLE6=FIQUEI SOZINHO
TTITLE7=TO FORA
TTITLE8=CRISTAL QUEBRADO
TTITLE9=TE AMO DEMAIS
TTITLE10=TUA SOMBRA EM MEU CAMINHO
TTITLE11=BRINCADEIRA TEM HORA
TTITLE12=QUERO ACENDER TEU FOGO
TTITLE13=FANTASIAS
TTITLE14=ENTRE TAPAS E BEIJOS
TTITLE15=PENSE EM MIM
EXTD=
EXTT0=
EXTT1=
EXTT2=
EXTT3=
EXTT4=
EXTT5=
EXTT6=
EXTT7=
EXTT8=
EXTT9=
EXTT10=
EXTT11=
EXTT12=
EXTT13=
EXTT14=
EXTT15=
PLAYORDER=
